<mxfile host="app.diagrams.net" modified="2022-07-19T14:30:13.033Z" agent="5.0 (Macintosh; Intel Mac OS X 10_15_7) AppleWebKit/537.36 (KHTML, like Gecko) Chrome/103.0.0.0 Safari/537.36" etag="3nCRjwemwQ5CRKNzmaIE" version="20.1.1" type="github">
  <diagram id="pcbbSf9cSEwe5Hm5QBOS" name="Page-1">
    <mxGraphModel dx="1833" dy="1010" grid="1" gridSize="10" guides="1" tooltips="1" connect="1" arrows="1" fold="1" page="1" pageScale="1" pageWidth="1169" pageHeight="1654" math="0" shadow="0">
      <root>
        <mxCell id="0" />
        <mxCell id="1" parent="0" />
        <mxCell id="0R2Zbpalyd-xcvmFvuPH-11" value="" style="endArrow=none;dashed=1;html=1;dashPattern=1 3;strokeWidth=2;rounded=0;fontSize=14;" parent="1" edge="1">
          <mxGeometry width="50" height="50" relative="1" as="geometry">
            <mxPoint x="570" y="1360" as="sourcePoint" />
            <mxPoint x="564.5" y="273" as="targetPoint" />
          </mxGeometry>
        </mxCell>
        <mxCell id="0R2Zbpalyd-xcvmFvuPH-9" value="" style="endArrow=none;dashed=1;html=1;dashPattern=1 3;strokeWidth=2;rounded=0;fontSize=14;" parent="1" edge="1">
          <mxGeometry width="50" height="50" relative="1" as="geometry">
            <mxPoint x="230" y="1340" as="sourcePoint" />
            <mxPoint x="230" y="276" as="targetPoint" />
          </mxGeometry>
        </mxCell>
        <mxCell id="0R2Zbpalyd-xcvmFvuPH-1" value="客户端" style="rounded=1;whiteSpace=wrap;html=1;fillColor=#FFFF75;fontSize=14;" parent="1" vertex="1">
          <mxGeometry x="180" y="230" width="90" height="50" as="geometry" />
        </mxCell>
        <mxCell id="0R2Zbpalyd-xcvmFvuPH-2" value="服务端" style="rounded=1;whiteSpace=wrap;html=1;fillColor=#FFFF75;fontSize=14;" parent="1" vertex="1">
          <mxGeometry x="520" y="230" width="90" height="50" as="geometry" />
        </mxCell>
        <mxCell id="0R2Zbpalyd-xcvmFvuPH-3" value="socket()" style="rounded=1;whiteSpace=wrap;html=1;fillColor=#f5f5f5;fontSize=14;fontColor=#333333;strokeColor=#666666;" parent="1" vertex="1">
          <mxGeometry x="180" y="310" width="90" height="50" as="geometry" />
        </mxCell>
        <mxCell id="0R2Zbpalyd-xcvmFvuPH-4" value="socket()" style="rounded=1;whiteSpace=wrap;html=1;fillColor=#f5f5f5;fontSize=14;fontColor=#333333;strokeColor=#666666;" parent="1" vertex="1">
          <mxGeometry x="520" y="310" width="90" height="50" as="geometry" />
        </mxCell>
        <mxCell id="0R2Zbpalyd-xcvmFvuPH-6" value="connect" style="rounded=1;whiteSpace=wrap;html=1;fillColor=#f5f5f5;fontSize=14;fontColor=#333333;strokeColor=#666666;" parent="1" vertex="1">
          <mxGeometry x="180" y="480" width="90" height="50" as="geometry" />
        </mxCell>
        <mxCell id="0R2Zbpalyd-xcvmFvuPH-7" value="bind()" style="rounded=1;whiteSpace=wrap;html=1;fillColor=#f5f5f5;fontSize=14;fontColor=#333333;strokeColor=#666666;" parent="1" vertex="1">
          <mxGeometry x="520" y="380" width="90" height="50" as="geometry" />
        </mxCell>
        <mxCell id="0R2Zbpalyd-xcvmFvuPH-8" value="listen()" style="rounded=1;whiteSpace=wrap;html=1;fillColor=#f5f5f5;fontSize=14;fontColor=#333333;strokeColor=#666666;" parent="1" vertex="1">
          <mxGeometry x="520" y="450" width="90" height="50" as="geometry" />
        </mxCell>
        <mxCell id="0R2Zbpalyd-xcvmFvuPH-14" style="rounded=0;orthogonalLoop=1;jettySize=auto;html=1;entryX=0;entryY=0.5;entryDx=0;entryDy=0;fontSize=14;exitX=1;exitY=0.5;exitDx=0;exitDy=0;" parent="1" source="0R2Zbpalyd-xcvmFvuPH-10" target="0R2Zbpalyd-xcvmFvuPH-12" edge="1">
          <mxGeometry relative="1" as="geometry" />
        </mxCell>
        <mxCell id="0R2Zbpalyd-xcvmFvuPH-10" value="SYN_SENT" style="rounded=0;whiteSpace=wrap;html=1;fontSize=14;fillColor=#fff2cc;strokeColor=#d6b656;" parent="1" vertex="1">
          <mxGeometry x="234" y="541" width="80" height="30" as="geometry" />
        </mxCell>
        <mxCell id="0R2Zbpalyd-xcvmFvuPH-17" style="edgeStyle=none;rounded=0;orthogonalLoop=1;jettySize=auto;html=1;entryX=1;entryY=0.5;entryDx=0;entryDy=0;fontSize=14;" parent="1" source="0R2Zbpalyd-xcvmFvuPH-12" target="0R2Zbpalyd-xcvmFvuPH-13" edge="1">
          <mxGeometry relative="1" as="geometry" />
        </mxCell>
        <mxCell id="0R2Zbpalyd-xcvmFvuPH-23" style="edgeStyle=orthogonalEdgeStyle;rounded=0;orthogonalLoop=1;jettySize=auto;html=1;entryX=0.5;entryY=0;entryDx=0;entryDy=0;fontSize=14;curved=1;" parent="1" source="0R2Zbpalyd-xcvmFvuPH-12" target="0R2Zbpalyd-xcvmFvuPH-22" edge="1">
          <mxGeometry relative="1" as="geometry" />
        </mxCell>
        <mxCell id="0R2Zbpalyd-xcvmFvuPH-12" value="SYN_RECV" style="rounded=0;whiteSpace=wrap;html=1;fontSize=14;fillColor=#dae8fc;strokeColor=#6c8ebf;" parent="1" vertex="1">
          <mxGeometry x="490" y="580" width="80" height="30" as="geometry" />
        </mxCell>
        <mxCell id="0R2Zbpalyd-xcvmFvuPH-13" value="ESTABLISHED" style="rounded=0;whiteSpace=wrap;html=1;fontSize=14;fillColor=#d5e8d4;strokeColor=#82b366;" parent="1" vertex="1">
          <mxGeometry x="234" y="650" width="106" height="30" as="geometry" />
        </mxCell>
        <mxCell id="0R2Zbpalyd-xcvmFvuPH-15" value="SYN" style="text;html=1;strokeColor=none;fillColor=none;align=center;verticalAlign=middle;whiteSpace=wrap;rounded=0;fontSize=14;labelBackgroundColor=default;" parent="1" vertex="1">
          <mxGeometry x="380" y="563" width="60" height="30" as="geometry" />
        </mxCell>
        <mxCell id="0R2Zbpalyd-xcvmFvuPH-18" value="SYN + ACK" style="text;html=1;strokeColor=none;fillColor=none;align=center;verticalAlign=middle;whiteSpace=wrap;rounded=0;fontSize=14;labelBackgroundColor=default;" parent="1" vertex="1">
          <mxGeometry x="369" y="624" width="80" height="30" as="geometry" />
        </mxCell>
        <mxCell id="0R2Zbpalyd-xcvmFvuPH-33" style="edgeStyle=orthogonalEdgeStyle;curved=1;rounded=0;orthogonalLoop=1;jettySize=auto;html=1;entryX=0.5;entryY=0;entryDx=0;entryDy=0;fontSize=14;" parent="1" source="0R2Zbpalyd-xcvmFvuPH-19" target="0R2Zbpalyd-xcvmFvuPH-28" edge="1">
          <mxGeometry relative="1" as="geometry" />
        </mxCell>
        <mxCell id="0R2Zbpalyd-xcvmFvuPH-19" value="ESTABLISHED" style="rounded=0;whiteSpace=wrap;html=1;fontSize=14;fillColor=#d5e8d4;strokeColor=#82b366;" parent="1" vertex="1">
          <mxGeometry x="464" y="700" width="106" height="30" as="geometry" />
        </mxCell>
        <mxCell id="0R2Zbpalyd-xcvmFvuPH-20" style="rounded=0;orthogonalLoop=1;jettySize=auto;html=1;fontSize=14;exitX=1;exitY=0.5;exitDx=0;exitDy=0;" parent="1" edge="1">
          <mxGeometry relative="1" as="geometry">
            <mxPoint x="340" y="680" as="sourcePoint" />
            <mxPoint x="460" y="710" as="targetPoint" />
          </mxGeometry>
        </mxCell>
        <mxCell id="0R2Zbpalyd-xcvmFvuPH-21" value="ACK" style="text;html=1;strokeColor=none;fillColor=none;align=center;verticalAlign=middle;whiteSpace=wrap;rounded=0;fontSize=14;labelBackgroundColor=default;" parent="1" vertex="1">
          <mxGeometry x="380" y="680" width="60" height="30" as="geometry" />
        </mxCell>
        <mxCell id="0R2Zbpalyd-xcvmFvuPH-22" value="" style="rounded=0;whiteSpace=wrap;html=1;labelBackgroundColor=default;fontSize=14;" parent="1" vertex="1">
          <mxGeometry x="660" y="525" width="100" height="140" as="geometry" />
        </mxCell>
        <mxCell id="0R2Zbpalyd-xcvmFvuPH-24" value="" style="rounded=0;whiteSpace=wrap;html=1;labelBackgroundColor=default;fontSize=14;fillColor=#dae8fc;strokeColor=#6c8ebf;" parent="1" vertex="1">
          <mxGeometry x="660" y="605" width="100" height="30" as="geometry" />
        </mxCell>
        <mxCell id="0R2Zbpalyd-xcvmFvuPH-25" value="" style="rounded=0;whiteSpace=wrap;html=1;labelBackgroundColor=default;fontSize=14;fillColor=#dae8fc;strokeColor=#6c8ebf;" parent="1" vertex="1">
          <mxGeometry x="660" y="575" width="100" height="30" as="geometry" />
        </mxCell>
        <mxCell id="0R2Zbpalyd-xcvmFvuPH-32" style="edgeStyle=orthogonalEdgeStyle;rounded=0;orthogonalLoop=1;jettySize=auto;html=1;entryX=1;entryY=0.25;entryDx=0;entryDy=0;fontSize=14;exitX=0.5;exitY=1;exitDx=0;exitDy=0;curved=1;" parent="1" source="0R2Zbpalyd-xcvmFvuPH-26" target="0R2Zbpalyd-xcvmFvuPH-19" edge="1">
          <mxGeometry relative="1" as="geometry" />
        </mxCell>
        <mxCell id="0R2Zbpalyd-xcvmFvuPH-26" value="" style="rounded=0;whiteSpace=wrap;html=1;labelBackgroundColor=default;fontSize=14;fillColor=#dae8fc;strokeColor=#6c8ebf;" parent="1" vertex="1">
          <mxGeometry x="660" y="635" width="100" height="30" as="geometry" />
        </mxCell>
        <mxCell id="0R2Zbpalyd-xcvmFvuPH-28" value="" style="rounded=0;whiteSpace=wrap;html=1;labelBackgroundColor=default;fontSize=14;" parent="1" vertex="1">
          <mxGeometry x="660" y="740" width="100" height="140" as="geometry" />
        </mxCell>
        <mxCell id="0R2Zbpalyd-xcvmFvuPH-29" value="" style="rounded=0;whiteSpace=wrap;html=1;labelBackgroundColor=default;fontSize=14;fillColor=#d5e8d4;strokeColor=#82b366;" parent="1" vertex="1">
          <mxGeometry x="660" y="820" width="100" height="30" as="geometry" />
        </mxCell>
        <mxCell id="0R2Zbpalyd-xcvmFvuPH-30" value="" style="rounded=0;whiteSpace=wrap;html=1;labelBackgroundColor=default;fontSize=14;fillColor=#d5e8d4;strokeColor=#82b366;" parent="1" vertex="1">
          <mxGeometry x="660" y="790" width="100" height="30" as="geometry" />
        </mxCell>
        <mxCell id="0R2Zbpalyd-xcvmFvuPH-38" style="edgeStyle=orthogonalEdgeStyle;curved=1;rounded=0;orthogonalLoop=1;jettySize=auto;html=1;entryX=1;entryY=0.5;entryDx=0;entryDy=0;fontSize=14;fontColor=default;" parent="1" source="0R2Zbpalyd-xcvmFvuPH-31" target="0R2Zbpalyd-xcvmFvuPH-36" edge="1">
          <mxGeometry relative="1" as="geometry">
            <Array as="points">
              <mxPoint x="710" y="905" />
            </Array>
          </mxGeometry>
        </mxCell>
        <mxCell id="0R2Zbpalyd-xcvmFvuPH-31" value="" style="rounded=0;whiteSpace=wrap;html=1;labelBackgroundColor=default;fontSize=14;fillColor=#d5e8d4;strokeColor=#82b366;" parent="1" vertex="1">
          <mxGeometry x="660" y="850" width="100" height="30" as="geometry" />
        </mxCell>
        <mxCell id="0R2Zbpalyd-xcvmFvuPH-34" value="半连接队列" style="rounded=0;whiteSpace=wrap;html=1;labelBackgroundColor=none;fontSize=14;fillColor=#FFFF75;fontColor=default;" parent="1" vertex="1">
          <mxGeometry x="760" y="525" width="90" height="25" as="geometry" />
        </mxCell>
        <mxCell id="0R2Zbpalyd-xcvmFvuPH-35" value="全连接队列" style="rounded=0;whiteSpace=wrap;html=1;labelBackgroundColor=none;fontSize=14;fillColor=#FFFF75;fontColor=default;" parent="1" vertex="1">
          <mxGeometry x="760" y="740" width="90" height="25" as="geometry" />
        </mxCell>
        <mxCell id="0R2Zbpalyd-xcvmFvuPH-36" value="accept()" style="rounded=1;whiteSpace=wrap;html=1;fillColor=#f5f5f5;fontSize=14;fontColor=#333333;strokeColor=#666666;" parent="1" vertex="1">
          <mxGeometry x="520" y="880" width="90" height="50" as="geometry" />
        </mxCell>
        <mxCell id="0R2Zbpalyd-xcvmFvuPH-40" value="阻塞，等待&lt;br&gt;三次握手" style="ellipse;whiteSpace=wrap;html=1;labelBackgroundColor=none;fontSize=14;dashed=1;" parent="1" vertex="1">
          <mxGeometry x="272" y="472" width="110" height="60" as="geometry" />
        </mxCell>
        <mxCell id="0R2Zbpalyd-xcvmFvuPH-42" value="阻塞，等待&lt;br&gt;三次握手完成" style="ellipse;whiteSpace=wrap;html=1;labelBackgroundColor=none;fontSize=14;dashed=1;" parent="1" vertex="1">
          <mxGeometry x="514" y="943" width="110" height="60" as="geometry" />
        </mxCell>
        <mxCell id="0R2Zbpalyd-xcvmFvuPH-46" style="rounded=0;orthogonalLoop=1;jettySize=auto;html=1;entryX=0;entryY=0.5;entryDx=0;entryDy=0;fontSize=14;fontColor=default;" parent="1" source="0R2Zbpalyd-xcvmFvuPH-43" target="0R2Zbpalyd-xcvmFvuPH-45" edge="1">
          <mxGeometry relative="1" as="geometry" />
        </mxCell>
        <mxCell id="0R2Zbpalyd-xcvmFvuPH-43" value="write()" style="rounded=1;whiteSpace=wrap;html=1;fillColor=#f5f5f5;fontSize=14;fontColor=#333333;strokeColor=#666666;" parent="1" vertex="1">
          <mxGeometry x="180" y="1120" width="90" height="50" as="geometry" />
        </mxCell>
        <mxCell id="0R2Zbpalyd-xcvmFvuPH-44" value="read()" style="rounded=1;whiteSpace=wrap;html=1;fillColor=#f5f5f5;fontSize=14;fontColor=#333333;strokeColor=#666666;" parent="1" vertex="1">
          <mxGeometry x="520" y="1037" width="90" height="50" as="geometry" />
        </mxCell>
        <mxCell id="0R2Zbpalyd-xcvmFvuPH-45" value="阻塞，等待&lt;br&gt;读数据就绪" style="ellipse;whiteSpace=wrap;html=1;labelBackgroundColor=none;fontSize=14;dashed=1;" parent="1" vertex="1">
          <mxGeometry x="514" y="1115" width="110" height="60" as="geometry" />
        </mxCell>
        <mxCell id="0R2Zbpalyd-xcvmFvuPH-47" value="请求数据" style="text;html=1;strokeColor=none;fillColor=none;align=center;verticalAlign=middle;whiteSpace=wrap;rounded=0;dashed=1;labelBackgroundColor=none;fontSize=14;fontColor=default;" parent="1" vertex="1">
          <mxGeometry x="350" y="1115" width="60" height="30" as="geometry" />
        </mxCell>
        <mxCell id="0R2Zbpalyd-xcvmFvuPH-48" value="read()" style="rounded=1;whiteSpace=wrap;html=1;fillColor=#f5f5f5;fontSize=14;fontColor=#333333;strokeColor=#666666;" parent="1" vertex="1">
          <mxGeometry x="182" y="1234" width="90" height="50" as="geometry" />
        </mxCell>
        <mxCell id="0R2Zbpalyd-xcvmFvuPH-50" style="edgeStyle=orthogonalEdgeStyle;rounded=0;orthogonalLoop=1;jettySize=auto;html=1;fontSize=14;fontColor=default;entryX=1;entryY=0.5;entryDx=0;entryDy=0;" parent="1" source="0R2Zbpalyd-xcvmFvuPH-49" target="0R2Zbpalyd-xcvmFvuPH-44" edge="1">
          <mxGeometry relative="1" as="geometry">
            <mxPoint x="770" y="1190" as="targetPoint" />
            <Array as="points">
              <mxPoint x="650" y="1259" />
              <mxPoint x="650" y="1062" />
            </Array>
          </mxGeometry>
        </mxCell>
        <mxCell id="0R2Zbpalyd-xcvmFvuPH-52" style="edgeStyle=orthogonalEdgeStyle;rounded=0;orthogonalLoop=1;jettySize=auto;html=1;entryX=1;entryY=0.5;entryDx=0;entryDy=0;fontSize=14;fontColor=default;" parent="1" source="0R2Zbpalyd-xcvmFvuPH-49" target="0R2Zbpalyd-xcvmFvuPH-48" edge="1">
          <mxGeometry relative="1" as="geometry" />
        </mxCell>
        <mxCell id="0R2Zbpalyd-xcvmFvuPH-49" value="write()" style="rounded=1;whiteSpace=wrap;html=1;fillColor=#f5f5f5;fontSize=14;fontColor=#333333;strokeColor=#666666;" parent="1" vertex="1">
          <mxGeometry x="520" y="1234" width="90" height="50" as="geometry" />
        </mxCell>
        <mxCell id="0R2Zbpalyd-xcvmFvuPH-51" value="处理数据" style="text;html=1;strokeColor=none;fillColor=none;align=center;verticalAlign=middle;whiteSpace=wrap;rounded=0;dashed=1;labelBackgroundColor=none;fontSize=14;fontColor=default;" parent="1" vertex="1">
          <mxGeometry x="576" y="1190" width="60" height="30" as="geometry" />
        </mxCell>
        <mxCell id="0R2Zbpalyd-xcvmFvuPH-53" value="返回响应数据" style="text;html=1;strokeColor=none;fillColor=none;align=center;verticalAlign=middle;whiteSpace=wrap;rounded=0;dashed=1;labelBackgroundColor=none;fontSize=14;fontColor=default;" parent="1" vertex="1">
          <mxGeometry x="335" y="1234" width="90" height="30" as="geometry" />
        </mxCell>
      </root>
    </mxGraphModel>
  </diagram>
</mxfile>
